<svg xmlns="http://www.w3.org/2000/svg" xmlns:xlink="http://www.w3.org/1999/xlink" width="500" zoomAndPan="magnify" viewBox="0 0 375 374.999991" height="500" preserveAspectRatio="xMidYMid meet" version="1.0"><defs><g/><clipPath id="33dd756ff4"><path d="M 113.699219 59.902344 L 301.027344 59.902344 L 301.027344 256.402344 L 113.699219 256.402344 Z M 113.699219 59.902344 " clip-rule="nonzero"/></clipPath></defs><rect x="-37.5" width="450" fill="#ffffff" y="-37.499999" height="449.999989" fill-opacity="1"/><rect x="-37.5" width="450" fill="#ffffff" y="-37.499999" height="449.999989" fill-opacity="1"/><rect x="-37.5" width="450" fill="#ffffff" y="-37.499999" height="449.999989" fill-opacity="1"/><g clip-path="url(#33dd756ff4)"><path fill="#2c1b0a" d="M 160.273438 101.703125 C 161.125 97.261719 173.796875 93.636719 177.722656 93.324219 C 182.460938 92.945312 185.121094 92.988281 189.363281 95.03125 L 189.355469 95.019531 C 189.691406 95.285156 189.53125 95.128906 189.789062 95.515625 C 189.492188 95.59375 189.414062 95.652344 189.125 95.582031 C 183.082031 94.042969 165.960938 98.082031 160.273438 101.703125 Z M 161.453125 121.007812 C 160.890625 117.058594 177.277344 112.921875 180.085938 112.597656 C 184.132812 112.140625 188.878906 111.992188 192.578125 113.769531 C 183.558594 114.589844 169.246094 116.820312 161.453125 121.007812 Z M 143.9375 80.554688 C 142.253906 85.917969 141.066406 90.121094 144.273438 95.335938 C 146.289062 98.605469 148.882812 99.058594 152.261719 100.15625 C 140.40625 103.410156 135.332031 87.023438 143.9375 80.554688 Z M 219.265625 99.957031 C 225.761719 99.414062 233.019531 99.007812 234.078125 90.953125 C 234.554688 87.386719 233.398438 85.460938 231.722656 82.550781 C 238.28125 85.511719 237.9375 95.929688 232.140625 99.570312 C 227.808594 102.285156 223.703125 101.605469 219.265625 99.957031 Z M 167.695312 145.847656 C 164.042969 142.078125 178.960938 133.0625 183.269531 141.789062 L 183.261719 141.789062 C 181.621094 141.582031 180.152344 141.140625 178.554688 141.394531 C 173.546875 142.1875 171.3125 142.492188 167.695312 145.847656 Z M 193.28125 140.933594 C 192.558594 138.433594 200.71875 132.875 206.960938 138.640625 C 207.75 139.371094 208.730469 140.734375 208.332031 141.859375 C 208.046875 141.917969 208.078125 141.96875 207.847656 141.851562 C 204.890625 140.386719 206.917969 140.824219 203.179688 140.035156 C 198.34375 139.015625 196.703125 140.488281 193.28125 140.933594 Z M 183.003906 171.636719 C 188.929688 173.652344 192.0625 174 197.394531 170.246094 C 197.722656 171.195312 197.570312 171.71875 196.910156 172.578125 C 191.867188 179.101562 182.402344 174.460938 183.003906 171.636719 Z M 212.183594 169.507812 C 209.925781 169.476562 207.820312 169.210938 206.136719 168.746094 C 199.144531 166.8125 196.347656 164.351562 189.085938 165.4375 L 189.085938 165.390625 C 183.035156 166.160156 180.777344 168.90625 174.945312 171.957031 C 173.171875 172.875 170.789062 173.652344 168.167969 174.148438 C 172.894531 181.453125 179.53125 186.746094 189.066406 186.359375 C 203.339844 185.796875 209.195312 179.28125 212.183594 169.507812 Z M 188.957031 157.804688 C 189.589844 156.382812 191.34375 153.847656 195.863281 153.246094 C 200.003906 152.691406 207.949219 156.53125 214.425781 158.695312 C 214.644531 157.203125 214.84375 155.675781 215.039062 154.113281 C 215.917969 147.023438 215.328125 138.265625 214.210938 130.171875 C 211.230469 129.046875 208.609375 128.746094 204.496094 128.183594 C 188.957031 126.054688 169.136719 128.71875 156.527344 138.878906 C 156.902344 141.5625 157.394531 144.328125 158.070312 147.183594 C 159.285156 152.355469 160.90625 158.566406 163.28125 164.5 C 169.277344 161.132812 176.59375 155.171875 181.023438 154.835938 C 185.59375 154.480469 187.960938 156.5625 188.957031 157.804688 Z M 188.511719 207.292969 C 188.492188 207.332031 188.472656 207.378906 188.453125 207.421875 C 188.472656 207.378906 188.503906 207.332031 188.511719 207.292969 Z M 188.511719 207.292969 Z M 184.554688 201.191406 C 184.585938 201.132812 184.605469 201.082031 184.605469 201.050781 C 184.585938 201.089844 184.566406 201.140625 184.554688 201.191406 Z M 184.554688 201.191406 Z M 182.214844 200.222656 C 185.289062 199.503906 187.710938 199.542969 186.921875 201.863281 C 185.972656 204.597656 177.839844 208.261719 175.242188 208.703125 C 175.910156 208.082031 180.105469 205.011719 182.648438 202.949219 C 180.035156 203.738281 177.484375 204.773438 174.882812 205.605469 C 170.671875 206.925781 171.234375 204.308594 172.125 203.707031 C 175.722656 201.269531 178.691406 200.3125 182.214844 200.222656 Z M 201.0625 194.269531 C 207.511719 192.039062 212.902344 192.1875 217.820312 195.71875 C 219.3125 194.445312 220.457031 193.230469 221.082031 190.972656 C 222.597656 185.472656 220.675781 181.050781 216.988281 177.148438 C 224.878906 177.769531 227.859375 193.105469 218.816406 196.492188 C 219.894531 197.378906 220.953125 198.433594 222.003906 199.679688 C 225.019531 203.265625 226.652344 205.683594 231.089844 208.09375 C 236.015625 210.765625 221.746094 218.785156 207.988281 210.667969 C 204.734375 208.753906 204.417969 207.933594 201.035156 206.542969 C 200.933594 206.699219 200.824219 206.859375 200.71875 207.007812 C 199.460938 208.941406 187.386719 210.589844 186.070312 207.53125 C 184.179688 212.167969 179.710938 214.488281 174.390625 216.257812 C 173.746094 216.472656 151.363281 222.332031 156.230469 216.40625 C 160.316406 211.421875 158.761719 205.296875 164.101562 199.925781 C 157.375 193.914062 162.945312 181.523438 166.625 183.554688 C 162.410156 188.039062 162.894531 193.597656 166.089844 198.179688 C 170.847656 194.484375 181.53125 192.207031 184.625 195.78125 C 176.890625 194.140625 167.070312 199.582031 163.714844 206.484375 C 162.023438 209.96875 161.878906 213.109375 160.335938 215.941406 C 169.484375 215.507812 181.488281 214.292969 185.980469 206 L 186.949219 203.964844 C 187.15625 203.195312 187.328125 202.226562 187.394531 200.992188 C 187.601562 197.121094 187.453125 194.695312 184.109375 194.269531 C 185.933594 192.226562 188.929688 194.851562 189.464844 196.777344 C 190.175781 199.355469 189.828125 203.324219 188.949219 206.175781 C 191.429688 206.285156 196.871094 205.929688 198.640625 205.378906 C 199.988281 201.722656 200.214844 195.90625 197.277344 192.9375 C 198.523438 192.085938 199.964844 192.75 201.0625 194.269531 Z M 203.160156 200.214844 C 203.140625 200.175781 203.132812 200.144531 203.113281 200.105469 L 203.101562 200.132812 C 203.121094 200.152344 203.140625 200.183594 203.160156 200.214844 Z M 203.160156 200.214844 Z M 208.820312 205.179688 C 207.722656 205 204.625 204.5 202.457031 203.363281 C 202.28125 204.003906 202.050781 204.644531 201.746094 205.277344 C 205.542969 205.832031 209.640625 210.460938 215.625 211.46875 C 221.953125 212.523438 223.4375 211.804688 227.667969 209.652344 C 225.308594 208.003906 222.851562 205.257812 221.417969 203.292969 C 214.554688 193.933594 211.734375 193.953125 201.242188 194.515625 C 201.914062 195.535156 202.4375 196.867188 202.695312 198.367188 C 205.664062 198.121094 210.359375 199.9375 211.5 201.03125 C 211.015625 201.714844 206.742188 201.015625 204.082031 201.183594 C 205.496094 202.496094 207.917969 204.398438 208.820312 205.179688 Z M 244.613281 217.402344 C 244.917969 216.308594 245.058594 215.082031 245.007812 213.730469 C 244.632812 204.734375 233.355469 207.738281 236.125 215.011719 C 237.5 218.667969 241.25 219.082031 244.613281 217.402344 Z M 244.613281 217.402344 Z M 246.007812 162.339844 C 245.996094 162.300781 245.976562 162.277344 245.96875 162.257812 C 245.976562 162.289062 245.988281 162.308594 246.007812 162.339844 Z M 268.101562 152.257812 C 268.09375 152.238281 268.082031 152.21875 268.074219 152.207031 C 268.082031 152.226562 268.09375 152.238281 268.101562 152.257812 Z M 268.101562 152.257812 Z M 270.695312 151.625 C 270.695312 151.597656 270.695312 151.574219 270.695312 151.554688 C 270.695312 151.605469 270.695312 151.605469 270.695312 151.625 Z M 270.695312 151.625 Z M 270.488281 153.164062 C 270.59375 152.457031 270.675781 151.910156 270.695312 151.664062 C 270.449219 151.429688 270.277344 151.28125 270.101562 151.152344 C 270.269531 151.773438 270.367188 152.472656 270.488281 153.164062 Z M 277.390625 150.855469 C 277.390625 150.84375 277.378906 150.824219 277.378906 150.816406 L 277.378906 150.804688 C 277.378906 150.84375 277.378906 150.824219 277.390625 150.855469 Z M 277.390625 150.855469 Z M 288.953125 157.097656 C 289.082031 157.054688 289.210938 157.015625 289.335938 156.976562 C 289.179688 157.015625 289.0625 157.046875 288.953125 157.097656 Z M 288.953125 157.097656 Z M 286.351562 158.84375 C 287.003906 158.152344 287.757812 157.597656 288.585938 157.242188 C 288.6875 154.410156 288.042969 151.449219 288.113281 148.613281 C 287.320312 152.246094 286.875 155.03125 286.351562 158.84375 Z M 296.707031 140.203125 C 296.757812 140.191406 296.785156 140.203125 296.796875 140.230469 C 298.023438 145.238281 297.429688 153.066406 300.148438 157.261719 C 303.222656 162.003906 297.378906 166.121094 295.304688 170.058594 C 289.457031 181.167969 288.171875 200.558594 270.992188 200.984375 L 266.609375 200.628906 L 270.714844 200.074219 C 289.109375 196.6875 285.601562 177.832031 294.679688 166 C 295.835938 164.492188 300.289062 160.855469 298.734375 158.210938 C 296.164062 153.808594 294.996094 147.183594 295.023438 142.234375 C 286.867188 145.789062 292.851562 151.980469 291.058594 158.507812 C 290.691406 159.871094 288.25 159.121094 285.898438 163.40625 C 284.304688 166.289062 284.234375 167.058594 283.34375 170.117188 L 283.078125 166.503906 C 283.226562 164.964844 283.710938 163.15625 284.53125 161.519531 C 284.375 157.105469 286.371094 144.800781 286.292969 144.445312 L 286.300781 144.4375 L 286.320312 144.4375 C 286.152344 144.132812 285.171875 143.6875 285.054688 143.617188 C 280.335938 140.902344 277.636719 138.511719 275.390625 134 C 272.917969 139.957031 276.28125 143.195312 279.695312 149.671875 C 280.84375 151.84375 277.902344 155.644531 277.183594 158.585938 C 276.074219 163.070312 276.320312 165.03125 275.667969 169.386719 C 274.582031 164.570312 274.414062 160.136719 275.757812 155.464844 C 275.808594 155.316406 277.410156 151.585938 277.390625 150.867188 C 276.195312 148.605469 274.671875 145.710938 273.75 142.796875 C 271.160156 139.957031 268.804688 137.722656 266.027344 136.125 C 265.074219 140.863281 266.601562 144.695312 270.824219 148.414062 C 275.273438 152.328125 272.167969 151.980469 271.714844 159.199219 C 271.546875 162.011719 271.832031 163.425781 272.257812 166.199219 C 270.386719 163.109375 270.210938 162.761719 269.992188 159.089844 C 269.933594 158.082031 270.023438 156.808594 270.160156 155.59375 C 269.28125 154.253906 268.46875 152.988281 268.160156 152.367188 L 268.023438 152.40625 C 262.316406 154.527344 262.316406 153.492188 255.945312 153.027344 L 255.917969 152.910156 C 255.097656 155.859375 253.289062 158.347656 251.289062 159.496094 C 250.765625 159.789062 250.199219 159.9375 249.589844 160.039062 C 252.199219 161.480469 261.011719 161.964844 262.890625 160.105469 C 264.761719 158.261719 263.75 159.078125 265.957031 157.628906 C 265.441406 158.953125 265.007812 160.046875 264.414062 160.9375 C 267.726562 165.105469 266.09375 175.195312 264.382812 178.402344 C 261.277344 184.238281 253.496094 181.375 252.484375 175.84375 C 252.109375 169.8125 251.347656 167.730469 247.15625 166.128906 C 247.234375 168.855469 245.632812 170.976562 245.492188 174.90625 C 245.15625 184.5625 254.871094 192.273438 254.207031 203.628906 C 253.703125 212.347656 250.269531 217.394531 246.3125 219.605469 C 241.941406 229.320312 225.535156 229.25 216 225.566406 C 209.816406 223.1875 207.582031 221.351562 203.816406 216.109375 C 210.550781 222.902344 216.660156 225.660156 226.007812 226.132812 C 231.992188 226.4375 239.292969 225.242188 242.851562 220.820312 C 238.46875 221.539062 234.265625 219.25 233.1875 214.992188 C 230.4375 204.09375 247.183594 201.445312 247.402344 213.808594 C 247.410156 214.382812 247.390625 214.933594 247.351562 215.457031 C 248.203125 214.640625 248.964844 213.671875 249.546875 212.566406 C 254.859375 202.601562 249.4375 194.941406 244.839844 185.3125 C 239.625 174.382812 245.304688 168.222656 245.96875 162.257812 C 252.269531 164.234375 254.492188 166.671875 254.207031 171.738281 C 254.742188 176.242188 254.871094 179.003906 260.21875 178.640625 C 264.453125 178.363281 264.335938 165.863281 263.078125 162.367188 C 262.457031 162.84375 261.675781 163.214844 260.65625 163.511719 C 256.234375 164.796875 249.4375 164.511719 245.820312 161.035156 C 245.828125 160.90625 245.929688 160.757812 246.085938 160.609375 C 246.046875 160.621094 246.007812 160.628906 245.96875 160.652344 C 250.535156 156.96875 251.59375 156.691406 252.703125 151.152344 C 252.929688 150.015625 254.929688 149.828125 256.886719 149.867188 C 261.863281 149.984375 262.5625 149.90625 267.460938 149.078125 C 267.636719 149.046875 267.804688 149.039062 267.964844 149.039062 C 264.621094 144.890625 262.097656 137.535156 266.460938 134.386719 C 269.578125 135.570312 271.605469 137.574219 273.109375 140.191406 C 272.554688 136.855469 273.1875 133.734375 276.492188 131.820312 C 279.921875 135.027344 279.40625 135.609375 281.960938 138.535156 C 285.519531 142.628906 288.953125 141.109375 288.84375 144.683594 C 288.992188 144.320312 289.160156 143.964844 289.359375 143.617188 C 291.058594 140.644531 293.382812 139.648438 296.675781 139.898438 Z M 182.390625 73.167969 C 186.355469 70.21875 189.820312 69.113281 194.921875 69.832031 C 202.101562 70.859375 210.164062 76.875 207.988281 85.019531 C 205.851562 92.957031 195.367188 92.089844 194.425781 90.023438 C 195.761719 90.210938 196.871094 90.222656 198.34375 90.082031 C 205.050781 89.5 207.699219 83.773438 204.082031 78.382812 C 198.957031 70.730469 190.3125 70.867188 182.390625 73.167969 Z M 264.96875 204.09375 C 249.597656 253.253906 197.59375 266.503906 159.089844 249.128906 C 134.253906 237.929688 115.796875 212.523438 113.847656 180.65625 C 113.207031 170.109375 114.648438 159.929688 117.824219 150.488281 C 116.25 157.953125 115.636719 165.773438 116.132812 173.800781 C 118.269531 208.832031 137.300781 234.386719 162.195312 245.554688 C 197.929688 261.578125 244.929688 249.246094 264.453125 203.570312 Z M 163.578125 227.433594 C 147.953125 218.777344 136.222656 203.402344 132.878906 184.457031 C 129.542969 165.496094 135.308594 147.054688 147.050781 133.585938 C 138.546875 147.242188 132.441406 165.0625 135.695312 183.535156 C 138.949219 202 150.917969 217.5 163.578125 227.433594 Z M 163.578125 227.433594 Z M 223.109375 120.238281 C 234.5625 126.585938 243.070312 135.996094 248.332031 146.808594 L 246.351562 148.605469 C 241.578125 138.246094 233.800781 128.628906 223.109375 120.238281 Z M 154.738281 101.257812 C 155.882812 114.085938 154.785156 125.324219 156.40625 137.992188 C 167.496094 124.570312 198.167969 120.433594 213.636719 126.300781 C 213.238281 123.859375 212.804688 121.53125 212.371094 119.367188 C 210.429688 109.296875 209.53125 96.777344 215.160156 91.101562 C 214.128906 97.6875 213.613281 101.792969 213.851562 106.207031 C 218.363281 104.875 223.972656 106.226562 228.628906 105.960938 C 241.832031 105.191406 244.089844 89.390625 238.28125 83.082031 C 231.390625 75.132812 224.582031 73.320312 213.84375 75.648438 C 214.179688 76.605469 214.476562 77.613281 214.710938 78.671875 C 212.183594 74.886719 209.835938 72.042969 207.214844 69.960938 C 203.011719 66.613281 198.097656 65.203125 190.550781 64.925781 C 180.710938 64.558594 174.875 66.476562 168.632812 72.125 L 169.1875 72.429688 L 169.097656 72.390625 C 169.433594 72.558594 169.277344 72.449219 169.570312 72.714844 C 169.304688 72.816406 169.1875 72.894531 168.898438 72.804688 C 168.652344 72.714844 168.40625 72.648438 168.148438 72.566406 C 167.160156 73.484375 166.160156 74.492188 165.132812 75.609375 C 165.597656 74.375 166.0625 73.238281 166.566406 72.203125 C 158.335938 70.601562 145.675781 73.023438 139.464844 78.097656 C 132.414062 83.851562 130.148438 91.996094 135.488281 101.714844 C 140.394531 108.386719 144.765625 109.683594 152.558594 108.507812 C 138.871094 118.785156 113.375 90.933594 136.5 74.976562 C 143.816406 69.921875 158.78125 67.964844 166.824219 71.105469 L 167.050781 71.234375 C 168.761719 68.035156 170.976562 65.6875 174.902344 63.59375 C 188.324219 56.433594 206.308594 59.683594 212.875 73.328125 C 218.054688 69.003906 229.28125 70.898438 234.40625 74.007812 C 245.078125 80.476562 250.300781 92.441406 241.566406 102.988281 C 234.226562 111.855469 224.414062 107.421875 214.871094 106.820312 C 214.160156 106.769531 214.058594 106.789062 213.890625 106.75 C 214.121094 110.097656 214.78125 113.679688 215.988281 118.695312 C 218.519531 129.210938 219.253906 143.617188 218.175781 154.46875 C 218.007812 156.136719 217.820312 157.875 217.601562 159.625 C 219.765625 160.148438 221.605469 160.292969 222.851562 159.75 C 228.003906 157.480469 223.941406 151.378906 223.941406 151.378906 C 223.941406 151.378906 225.484375 150.085938 227.945312 152.910156 C 229.171875 154.3125 229.933594 156.699219 229.847656 159.128906 C 229.597656 165.625 222.65625 168.628906 215.800781 169.339844 C 213.675781 177.464844 209.667969 184.792969 201.242188 188.019531 C 184.03125 194.636719 172.09375 187.40625 164.527344 174.621094 C 157.949219 175.085938 151.066406 173.453125 149.265625 167.550781 C 148.554688 165.222656 148.695312 162.753906 149.535156 161.144531 C 151.214844 157.894531 153.054688 158.832031 153.054688 158.832031 C 153.054688 158.832031 150.640625 165.578125 156.269531 166.703125 C 157.386719 166.921875 158.78125 166.601562 160.355469 165.953125 C 160.214844 165.605469 160.085938 165.25 159.949219 164.894531 C 152.441406 145.910156 149.859375 121.769531 154.738281 101.257812 " fill-opacity="1" fill-rule="evenodd"/></g><g fill="#2c1b0a" fill-opacity="1"><g transform="translate(55.563934, 299.718732)"><g/></g></g><g fill="#2c1b0a" fill-opacity="1"><g transform="translate(66.052215, 299.718732)"><g><path d="M 19.40625 0.21875 C 16 0.21875 13.039062 -0.398438 10.53125 -1.640625 C 8.019531 -2.890625 6.09375 -4.65625 4.75 -6.9375 C 3.40625 -9.21875 2.734375 -11.875 2.734375 -14.90625 C 2.734375 -19.101562 3.523438 -22.828125 5.109375 -26.078125 C 6.703125 -29.335938 8.851562 -31.859375 11.5625 -33.640625 C 14.269531 -35.421875 17.28125 -36.3125 20.59375 -36.3125 C 23.675781 -36.3125 26.015625 -35.519531 27.609375 -33.9375 C 29.210938 -32.351562 30.015625 -30.265625 30.015625 -27.671875 C 30.015625 -25.921875 29.707031 -24.519531 29.09375 -23.46875 C 28.488281 -22.414062 27.613281 -21.890625 26.46875 -21.890625 C 25.664062 -21.890625 25.035156 -22.070312 24.578125 -22.4375 C 24.117188 -22.8125 23.890625 -23.351562 23.890625 -24.0625 C 23.890625 -24.320312 23.945312 -24.796875 24.0625 -25.484375 C 24.238281 -26.335938 24.328125 -27.019531 24.328125 -27.53125 C 24.328125 -30.132812 22.941406 -31.4375 20.171875 -31.4375 C 18.285156 -31.4375 16.484375 -30.820312 14.765625 -29.59375 C 13.054688 -28.363281 11.671875 -26.554688 10.609375 -24.171875 C 9.554688 -21.785156 9.03125 -18.953125 9.03125 -15.671875 C 9.03125 -12.242188 9.988281 -9.59375 11.90625 -7.71875 C 13.820312 -5.851562 16.648438 -4.921875 20.390625 -4.921875 C 22.242188 -4.921875 24.117188 -5.15625 26.015625 -5.625 C 27.910156 -6.101562 30.015625 -6.828125 32.328125 -7.796875 C 32.765625 -7.960938 33.125 -8.046875 33.40625 -8.046875 C 33.863281 -8.046875 34.207031 -7.875 34.4375 -7.53125 C 34.664062 -7.195312 34.78125 -6.753906 34.78125 -6.203125 C 34.78125 -4.460938 33.835938 -3.179688 31.953125 -2.359375 C 29.921875 -1.472656 27.8125 -0.820312 25.625 -0.40625 C 23.445312 0.0078125 21.375 0.21875 19.40625 0.21875 Z M 19.40625 0.21875 "/></g></g></g><g fill="#2c1b0a" fill-opacity="1"><g transform="translate(94.570489, 299.718732)"><g><path d="M 23.890625 -13.140625 C 24.265625 -13.140625 24.550781 -12.953125 24.75 -12.578125 C 24.945312 -12.210938 25.046875 -11.742188 25.046875 -11.171875 C 25.046875 -9.804688 24.632812 -8.992188 23.8125 -8.734375 C 22.101562 -8.140625 20.21875 -7.796875 18.15625 -7.703125 C 17.613281 -5.304688 16.539062 -3.382812 14.9375 -1.9375 C 13.34375 -0.5 11.535156 0.21875 9.515625 0.21875 C 7.796875 0.21875 6.328125 -0.191406 5.109375 -1.015625 C 3.898438 -1.847656 2.976562 -2.945312 2.34375 -4.3125 C 1.71875 -5.6875 1.40625 -7.175781 1.40625 -8.78125 C 1.40625 -10.945312 1.816406 -12.878906 2.640625 -14.578125 C 3.472656 -16.273438 4.617188 -17.601562 6.078125 -18.5625 C 7.535156 -19.519531 9.148438 -20 10.921875 -20 C 13.085938 -20 14.832031 -19.25 16.15625 -17.75 C 17.488281 -16.25 18.269531 -14.398438 18.5 -12.203125 C 19.84375 -12.285156 21.441406 -12.570312 23.296875 -13.0625 C 23.523438 -13.113281 23.722656 -13.140625 23.890625 -13.140625 Z M 9.84375 -4.328125 C 10.757812 -4.328125 11.550781 -4.695312 12.21875 -5.4375 C 12.894531 -6.175781 13.347656 -7.25 13.578125 -8.65625 C 12.691406 -9.25 12.007812 -10.03125 11.53125 -11 C 11.0625 -11.976562 10.828125 -13.007812 10.828125 -14.09375 C 10.828125 -14.550781 10.875 -15.007812 10.96875 -15.46875 L 10.75 -15.46875 C 9.601562 -15.46875 8.648438 -14.914062 7.890625 -13.8125 C 7.140625 -12.707031 6.765625 -11.160156 6.765625 -9.171875 C 6.765625 -7.597656 7.070312 -6.394531 7.6875 -5.5625 C 8.300781 -4.738281 9.019531 -4.328125 9.84375 -4.328125 Z M 9.84375 -4.328125 "/></g></g></g><g fill="#2c1b0a" fill-opacity="1"><g transform="translate(113.025974, 299.718732)"><g><path d="M 23.890625 -13.140625 C 24.265625 -13.140625 24.550781 -12.953125 24.75 -12.578125 C 24.945312 -12.210938 25.046875 -11.742188 25.046875 -11.171875 C 25.046875 -9.804688 24.632812 -8.992188 23.8125 -8.734375 C 22.101562 -8.140625 20.21875 -7.796875 18.15625 -7.703125 C 17.613281 -5.304688 16.539062 -3.382812 14.9375 -1.9375 C 13.34375 -0.5 11.535156 0.21875 9.515625 0.21875 C 7.796875 0.21875 6.328125 -0.191406 5.109375 -1.015625 C 3.898438 -1.847656 2.976562 -2.945312 2.34375 -4.3125 C 1.71875 -5.6875 1.40625 -7.175781 1.40625 -8.78125 C 1.40625 -10.945312 1.816406 -12.878906 2.640625 -14.578125 C 3.472656 -16.273438 4.617188 -17.601562 6.078125 -18.5625 C 7.535156 -19.519531 9.148438 -20 10.921875 -20 C 13.085938 -20 14.832031 -19.25 16.15625 -17.75 C 17.488281 -16.25 18.269531 -14.398438 18.5 -12.203125 C 19.84375 -12.285156 21.441406 -12.570312 23.296875 -13.0625 C 23.523438 -13.113281 23.722656 -13.140625 23.890625 -13.140625 Z M 9.84375 -4.328125 C 10.757812 -4.328125 11.550781 -4.695312 12.21875 -5.4375 C 12.894531 -6.175781 13.347656 -7.25 13.578125 -8.65625 C 12.691406 -9.25 12.007812 -10.03125 11.53125 -11 C 11.0625 -11.976562 10.828125 -13.007812 10.828125 -14.09375 C 10.828125 -14.550781 10.875 -15.007812 10.96875 -15.46875 L 10.75 -15.46875 C 9.601562 -15.46875 8.648438 -14.914062 7.890625 -13.8125 C 7.140625 -12.707031 6.765625 -11.160156 6.765625 -9.171875 C 6.765625 -7.597656 7.070312 -6.394531 7.6875 -5.5625 C 8.300781 -4.738281 9.019531 -4.328125 9.84375 -4.328125 Z M 9.84375 -4.328125 "/></g></g></g><g fill="#2c1b0a" fill-opacity="1"><g transform="translate(131.481459, 299.718732)"><g><path d="M 26.8125 -9.546875 C 27.175781 -9.546875 27.46875 -9.375 27.6875 -9.03125 C 27.90625 -8.6875 28.015625 -8.21875 28.015625 -7.625 C 28.015625 -6.476562 27.742188 -5.59375 27.203125 -4.96875 C 25.910156 -3.394531 24.609375 -2.132812 23.296875 -1.1875 C 21.984375 -0.25 20.425781 0.21875 18.625 0.21875 C 16.425781 0.21875 14.65625 -0.410156 13.3125 -1.671875 C 11.976562 -2.929688 11.3125 -4.601562 11.3125 -6.6875 C 11.3125 -7.789062 11.878906 -8.585938 13.015625 -9.078125 C 14.273438 -9.617188 15.175781 -10.195312 15.71875 -10.8125 C 16.257812 -11.425781 16.53125 -12.175781 16.53125 -13.0625 C 16.53125 -13.570312 16.421875 -13.957031 16.203125 -14.21875 C 15.992188 -14.476562 15.734375 -14.609375 15.421875 -14.609375 C 14.648438 -14.609375 13.800781 -14.050781 12.875 -12.9375 C 11.945312 -11.820312 11.082031 -10.382812 10.28125 -8.625 C 9.476562 -6.875 8.847656 -5.070312 8.390625 -3.21875 C 8.078125 -1.875 7.710938 -0.960938 7.296875 -0.484375 C 6.890625 -0.015625 6.242188 0.21875 5.359375 0.21875 C 4.472656 0.21875 3.820312 -0.101562 3.40625 -0.75 C 2.988281 -1.394531 2.707031 -2.382812 2.5625 -3.71875 C 2.425781 -5.0625 2.359375 -7.035156 2.359375 -9.640625 C 2.359375 -14.035156 2.804688 -18.613281 3.703125 -23.375 C 4.597656 -28.144531 5.925781 -32.148438 7.6875 -35.390625 C 9.445312 -38.640625 11.550781 -40.265625 14 -40.265625 C 15.3125 -40.265625 16.375 -39.695312 17.1875 -38.5625 C 18.007812 -37.4375 18.421875 -35.972656 18.421875 -34.171875 C 18.421875 -31.285156 17.578125 -28.296875 15.890625 -25.203125 C 14.203125 -22.109375 11.460938 -18.488281 7.671875 -14.34375 C 7.578125 -12.863281 7.53125 -11.335938 7.53125 -9.765625 C 8.90625 -13.335938 10.476562 -15.925781 12.25 -17.53125 C 14.019531 -19.144531 15.675781 -19.953125 17.21875 -19.953125 C 18.644531 -19.953125 19.789062 -19.46875 20.65625 -18.5 C 21.53125 -17.53125 21.96875 -16.332031 21.96875 -14.90625 C 21.96875 -13.332031 21.566406 -11.890625 20.765625 -10.578125 C 19.972656 -9.265625 18.601562 -8.09375 16.65625 -7.0625 C 16.769531 -6.289062 17.117188 -5.671875 17.703125 -5.203125 C 18.296875 -4.734375 19.003906 -4.5 19.828125 -4.5 C 20.710938 -4.5 21.566406 -4.835938 22.390625 -5.515625 C 23.222656 -6.203125 24.3125 -7.347656 25.65625 -8.953125 C 26 -9.347656 26.382812 -9.546875 26.8125 -9.546875 Z M 13.109375 -36.015625 C 12.585938 -36.015625 12.015625 -35.28125 11.390625 -33.8125 C 10.765625 -32.34375 10.15625 -30.359375 9.5625 -27.859375 C 8.976562 -25.359375 8.503906 -22.640625 8.140625 -19.703125 C 9.910156 -21.785156 11.375 -24.050781 12.53125 -26.5 C 13.6875 -28.957031 14.265625 -31.1875 14.265625 -33.1875 C 14.265625 -34.101562 14.160156 -34.800781 13.953125 -35.28125 C 13.753906 -35.769531 13.472656 -36.015625 13.109375 -36.015625 Z M 13.109375 -36.015625 "/></g></g></g><g fill="#2c1b0a" fill-opacity="1"><g transform="translate(153.105652, 299.718732)"><g><path d="M 21.15625 -9.546875 C 21.53125 -9.546875 21.820312 -9.375 22.03125 -9.03125 C 22.25 -8.6875 22.359375 -8.21875 22.359375 -7.625 C 22.359375 -6.476562 22.085938 -5.59375 21.546875 -4.96875 C 20.484375 -3.6875 18.988281 -2.5 17.0625 -1.40625 C 15.132812 -0.320312 13.070312 0.21875 10.875 0.21875 C 7.875 0.21875 5.546875 -0.59375 3.890625 -2.21875 C 2.234375 -3.851562 1.40625 -6.082031 1.40625 -8.90625 C 1.40625 -10.875 1.816406 -12.707031 2.640625 -14.40625 C 3.472656 -16.101562 4.625 -17.453125 6.09375 -18.453125 C 7.570312 -19.453125 9.238281 -19.953125 11.09375 -19.953125 C 12.75 -19.953125 14.078125 -19.457031 15.078125 -18.46875 C 16.078125 -17.488281 16.578125 -16.15625 16.578125 -14.46875 C 16.578125 -12.5 15.867188 -10.804688 14.453125 -9.390625 C 13.035156 -7.984375 10.644531 -6.863281 7.28125 -6.03125 C 7.988281 -4.71875 9.34375 -4.0625 11.34375 -4.0625 C 12.632812 -4.0625 14.097656 -4.507812 15.734375 -5.40625 C 17.378906 -6.3125 18.800781 -7.492188 20 -8.953125 C 20.34375 -9.347656 20.726562 -9.546875 21.15625 -9.546875 Z M 10.359375 -15.765625 C 9.304688 -15.765625 8.414062 -15.148438 7.6875 -13.921875 C 6.957031 -12.691406 6.59375 -11.207031 6.59375 -9.46875 L 6.59375 -9.375 C 8.28125 -9.78125 9.609375 -10.378906 10.578125 -11.171875 C 11.546875 -11.972656 12.03125 -12.90625 12.03125 -13.96875 C 12.03125 -14.507812 11.878906 -14.941406 11.578125 -15.265625 C 11.285156 -15.597656 10.878906 -15.765625 10.359375 -15.765625 Z M 10.359375 -15.765625 "/></g></g></g><g fill="#2c1b0a" fill-opacity="1"><g transform="translate(169.077552, 299.718732)"><g><path d="M 5.09375 0.21875 C 4.007812 0.21875 3.242188 -0.351562 2.796875 -1.5 C 2.359375 -2.644531 2.140625 -4.472656 2.140625 -6.984375 C 2.140625 -10.691406 2.664062 -14.21875 3.71875 -17.5625 C 3.976562 -18.382812 4.398438 -18.988281 4.984375 -19.375 C 5.578125 -19.757812 6.398438 -19.953125 7.453125 -19.953125 C 8.023438 -19.953125 8.425781 -19.878906 8.65625 -19.734375 C 8.882812 -19.597656 9 -19.332031 9 -18.9375 C 9 -18.476562 8.78125 -17.445312 8.34375 -15.84375 C 8.0625 -14.707031 7.832031 -13.707031 7.65625 -12.84375 C 7.488281 -11.988281 7.347656 -10.929688 7.234375 -9.671875 C 8.179688 -12.128906 9.238281 -14.128906 10.40625 -15.671875 C 11.570312 -17.210938 12.71875 -18.3125 13.84375 -18.96875 C 14.976562 -19.625 16.015625 -19.953125 16.953125 -19.953125 C 18.816406 -19.953125 19.75 -19.023438 19.75 -17.171875 C 19.75 -16.804688 19.617188 -15.90625 19.359375 -14.46875 C 19.128906 -13.332031 19.015625 -12.617188 19.015625 -12.328125 C 19.015625 -11.328125 19.375 -10.828125 20.09375 -10.828125 C 20.882812 -10.828125 21.910156 -11.457031 23.171875 -12.71875 C 23.546875 -13.09375 23.929688 -13.28125 24.328125 -13.28125 C 24.703125 -13.28125 24.992188 -13.113281 25.203125 -12.78125 C 25.421875 -12.457031 25.53125 -12.023438 25.53125 -11.484375 C 25.53125 -10.421875 25.242188 -9.59375 24.671875 -9 C 23.867188 -8.164062 22.929688 -7.457031 21.859375 -6.875 C 20.785156 -6.289062 19.648438 -6 18.453125 -6 C 16.941406 -6 15.789062 -6.382812 15 -7.15625 C 14.21875 -7.925781 13.828125 -8.96875 13.828125 -10.28125 C 13.828125 -10.707031 13.875 -11.132812 13.96875 -11.5625 C 14.019531 -12.132812 14.046875 -12.519531 14.046875 -12.71875 C 14.046875 -13.175781 13.890625 -13.40625 13.578125 -13.40625 C 13.148438 -13.40625 12.582031 -12.925781 11.875 -11.96875 C 11.175781 -11.007812 10.484375 -9.742188 9.796875 -8.171875 C 9.117188 -6.609375 8.566406 -4.957031 8.140625 -3.21875 C 7.828125 -1.875 7.460938 -0.960938 7.046875 -0.484375 C 6.628906 -0.015625 5.976562 0.21875 5.09375 0.21875 Z M 5.09375 0.21875 "/></g></g></g><g fill="#2c1b0a" fill-opacity="1"><g transform="translate(187.704321, 299.718732)"><g><path d="M 23.984375 -9.46875 C 24.359375 -9.46875 24.648438 -9.285156 24.859375 -8.921875 C 25.078125 -8.566406 25.1875 -8.117188 25.1875 -7.578125 C 25.1875 -6.921875 25.082031 -6.40625 24.875 -6.03125 C 24.675781 -5.664062 24.363281 -5.335938 23.9375 -5.046875 L 15.71875 0.46875 C 14.632812 6.382812 13.210938 11.03125 11.453125 14.40625 C 9.703125 17.789062 7.46875 19.484375 4.75 19.484375 C 3.289062 19.484375 2.101562 19.03125 1.1875 18.125 C 0.28125 17.226562 -0.171875 16.054688 -0.171875 14.609375 C -0.171875 13.265625 0.132812 11.890625 0.75 10.484375 C 1.363281 9.085938 2.503906 7.484375 4.171875 5.671875 C 5.847656 3.859375 8.210938 1.78125 11.265625 -0.5625 L 11.390625 -1.546875 C 11.585938 -2.597656 11.816406 -4.109375 12.078125 -6.078125 C 11.503906 -4.023438 10.703125 -2.460938 9.671875 -1.390625 C 8.648438 -0.316406 7.566406 0.21875 6.421875 0.21875 C 5.140625 0.21875 4.09375 -0.375 3.28125 -1.5625 C 2.46875 -2.75 2.0625 -4.226562 2.0625 -6 C 2.0625 -8.132812 2.203125 -10.09375 2.484375 -11.875 C 2.765625 -13.664062 3.234375 -15.5625 3.890625 -17.5625 C 4.179688 -18.414062 4.582031 -19.023438 5.09375 -19.390625 C 5.613281 -19.765625 6.425781 -19.953125 7.53125 -19.953125 C 8.164062 -19.953125 8.601562 -19.851562 8.84375 -19.65625 C 9.082031 -19.457031 9.203125 -19.160156 9.203125 -18.765625 C 9.203125 -18.535156 9.046875 -17.765625 8.734375 -16.453125 C 8.453125 -15.390625 8.222656 -14.429688 8.046875 -13.578125 C 7.816406 -12.410156 7.613281 -11.289062 7.4375 -10.21875 C 7.269531 -9.144531 7.1875 -8.265625 7.1875 -7.578125 C 7.1875 -6.492188 7.488281 -5.953125 8.09375 -5.953125 C 8.519531 -5.953125 9.054688 -6.378906 9.703125 -7.234375 C 10.347656 -8.085938 11.03125 -9.382812 11.75 -11.125 C 12.476562 -12.875 13.1875 -15.019531 13.875 -17.5625 C 14.101562 -18.414062 14.453125 -19.023438 14.921875 -19.390625 C 15.390625 -19.765625 16.097656 -19.953125 17.046875 -19.953125 C 17.703125 -19.953125 18.15625 -19.863281 18.40625 -19.6875 C 18.664062 -19.519531 18.796875 -19.238281 18.796875 -18.84375 C 18.796875 -18.132812 18.425781 -15.679688 17.6875 -11.484375 L 16.578125 -4.578125 C 18.773438 -6.234375 20.914062 -7.75 23 -9.125 C 23.375 -9.351562 23.703125 -9.46875 23.984375 -9.46875 Z M 5.21875 15.328125 C 5.9375 15.328125 6.738281 14.5 7.625 12.84375 C 8.507812 11.1875 9.394531 8.429688 10.28125 4.578125 C 8.082031 6.429688 6.488281 8.125 5.5 9.65625 C 4.519531 11.1875 4.03125 12.519531 4.03125 13.65625 C 4.03125 14.144531 4.117188 14.546875 4.296875 14.859375 C 4.484375 15.171875 4.789062 15.328125 5.21875 15.328125 Z M 5.21875 15.328125 "/></g></g></g><g fill="#2c1b0a" fill-opacity="1"><g transform="translate(207.358781, 299.718732)"><g><path d="M 19.40625 0.21875 C 16 0.21875 13.039062 -0.398438 10.53125 -1.640625 C 8.019531 -2.890625 6.09375 -4.65625 4.75 -6.9375 C 3.40625 -9.21875 2.734375 -11.875 2.734375 -14.90625 C 2.734375 -19.101562 3.523438 -22.828125 5.109375 -26.078125 C 6.703125 -29.335938 8.851562 -31.859375 11.5625 -33.640625 C 14.269531 -35.421875 17.28125 -36.3125 20.59375 -36.3125 C 23.675781 -36.3125 26.015625 -35.519531 27.609375 -33.9375 C 29.210938 -32.351562 30.015625 -30.265625 30.015625 -27.671875 C 30.015625 -25.921875 29.707031 -24.519531 29.09375 -23.46875 C 28.488281 -22.414062 27.613281 -21.890625 26.46875 -21.890625 C 25.664062 -21.890625 25.035156 -22.070312 24.578125 -22.4375 C 24.117188 -22.8125 23.890625 -23.351562 23.890625 -24.0625 C 23.890625 -24.320312 23.945312 -24.796875 24.0625 -25.484375 C 24.238281 -26.335938 24.328125 -27.019531 24.328125 -27.53125 C 24.328125 -30.132812 22.941406 -31.4375 20.171875 -31.4375 C 18.285156 -31.4375 16.484375 -30.820312 14.765625 -29.59375 C 13.054688 -28.363281 11.671875 -26.554688 10.609375 -24.171875 C 9.554688 -21.785156 9.03125 -18.953125 9.03125 -15.671875 C 9.03125 -12.242188 9.988281 -9.59375 11.90625 -7.71875 C 13.820312 -5.851562 16.648438 -4.921875 20.390625 -4.921875 C 22.242188 -4.921875 24.117188 -5.15625 26.015625 -5.625 C 27.910156 -6.101562 30.015625 -6.828125 32.328125 -7.796875 C 32.765625 -7.960938 33.125 -8.046875 33.40625 -8.046875 C 33.863281 -8.046875 34.207031 -7.875 34.4375 -7.53125 C 34.664062 -7.195312 34.78125 -6.753906 34.78125 -6.203125 C 34.78125 -4.460938 33.835938 -3.179688 31.953125 -2.359375 C 29.921875 -1.472656 27.8125 -0.820312 25.625 -0.40625 C 23.445312 0.0078125 21.375 0.21875 19.40625 0.21875 Z M 19.40625 0.21875 "/></g></g></g><g fill="#2c1b0a" fill-opacity="1"><g transform="translate(235.877055, 299.718732)"><g><path d="M 23.890625 -13.140625 C 24.265625 -13.140625 24.550781 -12.953125 24.75 -12.578125 C 24.945312 -12.210938 25.046875 -11.742188 25.046875 -11.171875 C 25.046875 -9.804688 24.632812 -8.992188 23.8125 -8.734375 C 22.101562 -8.140625 20.21875 -7.796875 18.15625 -7.703125 C 17.613281 -5.304688 16.539062 -3.382812 14.9375 -1.9375 C 13.34375 -0.5 11.535156 0.21875 9.515625 0.21875 C 7.796875 0.21875 6.328125 -0.191406 5.109375 -1.015625 C 3.898438 -1.847656 2.976562 -2.945312 2.34375 -4.3125 C 1.71875 -5.6875 1.40625 -7.175781 1.40625 -8.78125 C 1.40625 -10.945312 1.816406 -12.878906 2.640625 -14.578125 C 3.472656 -16.273438 4.617188 -17.601562 6.078125 -18.5625 C 7.535156 -19.519531 9.148438 -20 10.921875 -20 C 13.085938 -20 14.832031 -19.25 16.15625 -17.75 C 17.488281 -16.25 18.269531 -14.398438 18.5 -12.203125 C 19.84375 -12.285156 21.441406 -12.570312 23.296875 -13.0625 C 23.523438 -13.113281 23.722656 -13.140625 23.890625 -13.140625 Z M 9.84375 -4.328125 C 10.757812 -4.328125 11.550781 -4.695312 12.21875 -5.4375 C 12.894531 -6.175781 13.347656 -7.25 13.578125 -8.65625 C 12.691406 -9.25 12.007812 -10.03125 11.53125 -11 C 11.0625 -11.976562 10.828125 -13.007812 10.828125 -14.09375 C 10.828125 -14.550781 10.875 -15.007812 10.96875 -15.46875 L 10.75 -15.46875 C 9.601562 -15.46875 8.648438 -14.914062 7.890625 -13.8125 C 7.140625 -12.707031 6.765625 -11.160156 6.765625 -9.171875 C 6.765625 -7.597656 7.070312 -6.394531 7.6875 -5.5625 C 8.300781 -4.738281 9.019531 -4.328125 9.84375 -4.328125 Z M 9.84375 -4.328125 "/></g></g></g><g fill="#2c1b0a" fill-opacity="1"><g transform="translate(254.33254, 299.718732)"><g><path d="M 5.09375 0.21875 C 4.007812 0.21875 3.242188 -0.351562 2.796875 -1.5 C 2.359375 -2.644531 2.140625 -4.472656 2.140625 -6.984375 C 2.140625 -10.691406 2.664062 -14.21875 3.71875 -17.5625 C 3.976562 -18.382812 4.398438 -18.988281 4.984375 -19.375 C 5.578125 -19.757812 6.398438 -19.953125 7.453125 -19.953125 C 8.023438 -19.953125 8.425781 -19.878906 8.65625 -19.734375 C 8.882812 -19.597656 9 -19.332031 9 -18.9375 C 9 -18.476562 8.78125 -17.445312 8.34375 -15.84375 C 8.0625 -14.707031 7.832031 -13.707031 7.65625 -12.84375 C 7.488281 -11.988281 7.347656 -10.929688 7.234375 -9.671875 C 8.179688 -12.128906 9.238281 -14.128906 10.40625 -15.671875 C 11.570312 -17.210938 12.71875 -18.3125 13.84375 -18.96875 C 14.976562 -19.625 16.015625 -19.953125 16.953125 -19.953125 C 18.816406 -19.953125 19.75 -19.023438 19.75 -17.171875 C 19.75 -16.804688 19.617188 -15.90625 19.359375 -14.46875 C 19.128906 -13.332031 19.015625 -12.617188 19.015625 -12.328125 C 19.015625 -11.328125 19.375 -10.828125 20.09375 -10.828125 C 20.882812 -10.828125 21.910156 -11.457031 23.171875 -12.71875 C 23.546875 -13.09375 23.929688 -13.28125 24.328125 -13.28125 C 24.703125 -13.28125 24.992188 -13.113281 25.203125 -12.78125 C 25.421875 -12.457031 25.53125 -12.023438 25.53125 -11.484375 C 25.53125 -10.421875 25.242188 -9.59375 24.671875 -9 C 23.867188 -8.164062 22.929688 -7.457031 21.859375 -6.875 C 20.785156 -6.289062 19.648438 -6 18.453125 -6 C 16.941406 -6 15.789062 -6.382812 15 -7.15625 C 14.21875 -7.925781 13.828125 -8.96875 13.828125 -10.28125 C 13.828125 -10.707031 13.875 -11.132812 13.96875 -11.5625 C 14.019531 -12.132812 14.046875 -12.519531 14.046875 -12.71875 C 14.046875 -13.175781 13.890625 -13.40625 13.578125 -13.40625 C 13.148438 -13.40625 12.582031 -12.925781 11.875 -11.96875 C 11.175781 -11.007812 10.484375 -9.742188 9.796875 -8.171875 C 9.117188 -6.609375 8.566406 -4.957031 8.140625 -3.21875 C 7.828125 -1.875 7.460938 -0.960938 7.046875 -0.484375 C 6.628906 -0.015625 5.976562 0.21875 5.09375 0.21875 Z M 5.09375 0.21875 "/></g></g></g><g fill="#2c1b0a" fill-opacity="1"><g transform="translate(272.95932, 299.718732)"><g><path d="M 5.09375 0.21875 C 4.007812 0.21875 3.242188 -0.351562 2.796875 -1.5 C 2.359375 -2.644531 2.140625 -4.472656 2.140625 -6.984375 C 2.140625 -10.691406 2.664062 -14.21875 3.71875 -17.5625 C 3.976562 -18.382812 4.398438 -18.988281 4.984375 -19.375 C 5.578125 -19.757812 6.398438 -19.953125 7.453125 -19.953125 C 8.023438 -19.953125 8.425781 -19.878906 8.65625 -19.734375 C 8.882812 -19.597656 9 -19.332031 9 -18.9375 C 9 -18.476562 8.78125 -17.445312 8.34375 -15.84375 C 8.0625 -14.707031 7.832031 -13.707031 7.65625 -12.84375 C 7.488281 -11.988281 7.347656 -10.929688 7.234375 -9.671875 C 8.179688 -12.128906 9.238281 -14.128906 10.40625 -15.671875 C 11.570312 -17.210938 12.71875 -18.3125 13.84375 -18.96875 C 14.976562 -19.625 16.015625 -19.953125 16.953125 -19.953125 C 18.816406 -19.953125 19.75 -19.023438 19.75 -17.171875 C 19.75 -16.054688 19.429688 -14.046875 18.796875 -11.140625 C 18.253906 -8.648438 17.984375 -7.003906 17.984375 -6.203125 C 17.984375 -5.066406 18.398438 -4.5 19.234375 -4.5 C 19.804688 -4.5 20.484375 -4.847656 21.265625 -5.546875 C 22.046875 -6.242188 23.09375 -7.378906 24.40625 -8.953125 C 24.75 -9.347656 25.132812 -9.546875 25.5625 -9.546875 C 25.9375 -9.546875 26.226562 -9.375 26.4375 -9.03125 C 26.65625 -8.6875 26.765625 -8.21875 26.765625 -7.625 C 26.765625 -6.476562 26.492188 -5.59375 25.953125 -4.96875 C 24.722656 -3.457031 23.398438 -2.210938 21.984375 -1.234375 C 20.578125 -0.265625 18.972656 0.21875 17.171875 0.21875 C 15.710938 0.21875 14.613281 -0.203125 13.875 -1.046875 C 13.132812 -1.890625 12.765625 -3.113281 12.765625 -4.71875 C 12.765625 -5.507812 12.960938 -6.9375 13.359375 -9 C 13.734375 -10.789062 13.921875 -12.03125 13.921875 -12.71875 C 13.921875 -13.175781 13.765625 -13.40625 13.453125 -13.40625 C 13.078125 -13.40625 12.550781 -12.925781 11.875 -11.96875 C 11.207031 -11.007812 10.523438 -9.742188 9.828125 -8.171875 C 9.128906 -6.609375 8.566406 -4.957031 8.140625 -3.21875 C 7.828125 -1.875 7.460938 -0.960938 7.046875 -0.484375 C 6.628906 -0.015625 5.976562 0.21875 5.09375 0.21875 Z M 5.09375 0.21875 "/></g></g></g><g fill="#2c1b0a" fill-opacity="1"><g transform="translate(293.341727, 299.718732)"><g><path d="M 21.15625 -9.546875 C 21.53125 -9.546875 21.820312 -9.375 22.03125 -9.03125 C 22.25 -8.6875 22.359375 -8.21875 22.359375 -7.625 C 22.359375 -6.476562 22.085938 -5.59375 21.546875 -4.96875 C 20.484375 -3.6875 18.988281 -2.5 17.0625 -1.40625 C 15.132812 -0.320312 13.070312 0.21875 10.875 0.21875 C 7.875 0.21875 5.546875 -0.59375 3.890625 -2.21875 C 2.234375 -3.851562 1.40625 -6.082031 1.40625 -8.90625 C 1.40625 -10.875 1.816406 -12.707031 2.640625 -14.40625 C 3.472656 -16.101562 4.625 -17.453125 6.09375 -18.453125 C 7.570312 -19.453125 9.238281 -19.953125 11.09375 -19.953125 C 12.75 -19.953125 14.078125 -19.457031 15.078125 -18.46875 C 16.078125 -17.488281 16.578125 -16.15625 16.578125 -14.46875 C 16.578125 -12.5 15.867188 -10.804688 14.453125 -9.390625 C 13.035156 -7.984375 10.644531 -6.863281 7.28125 -6.03125 C 7.988281 -4.71875 9.34375 -4.0625 11.34375 -4.0625 C 12.632812 -4.0625 14.097656 -4.507812 15.734375 -5.40625 C 17.378906 -6.3125 18.800781 -7.492188 20 -8.953125 C 20.34375 -9.347656 20.726562 -9.546875 21.15625 -9.546875 Z M 10.359375 -15.765625 C 9.304688 -15.765625 8.414062 -15.148438 7.6875 -13.921875 C 6.957031 -12.691406 6.59375 -11.207031 6.59375 -9.46875 L 6.59375 -9.375 C 8.28125 -9.78125 9.609375 -10.378906 10.578125 -11.171875 C 11.546875 -11.972656 12.03125 -12.90625 12.03125 -13.96875 C 12.03125 -14.507812 11.878906 -14.941406 11.578125 -15.265625 C 11.285156 -15.597656 10.878906 -15.765625 10.359375 -15.765625 Z M 10.359375 -15.765625 "/></g></g></g><g fill="#2c1b0a" fill-opacity="1"><g transform="translate(309.313627, 299.718732)"><g><path d="M 5.09375 0.21875 C 4.007812 0.21875 3.242188 -0.351562 2.796875 -1.5 C 2.359375 -2.644531 2.140625 -4.472656 2.140625 -6.984375 C 2.140625 -10.691406 2.664062 -14.21875 3.71875 -17.5625 C 3.976562 -18.382812 4.398438 -18.988281 4.984375 -19.375 C 5.578125 -19.757812 6.398438 -19.953125 7.453125 -19.953125 C 8.023438 -19.953125 8.425781 -19.878906 8.65625 -19.734375 C 8.882812 -19.597656 9 -19.332031 9 -18.9375 C 9 -18.476562 8.78125 -17.445312 8.34375 -15.84375 C 8.0625 -14.707031 7.832031 -13.707031 7.65625 -12.84375 C 7.488281 -11.988281 7.347656 -10.929688 7.234375 -9.671875 C 8.179688 -12.128906 9.238281 -14.128906 10.40625 -15.671875 C 11.570312 -17.210938 12.71875 -18.3125 13.84375 -18.96875 C 14.976562 -19.625 16.015625 -19.953125 16.953125 -19.953125 C 18.816406 -19.953125 19.75 -19.023438 19.75 -17.171875 C 19.75 -16.804688 19.617188 -15.90625 19.359375 -14.46875 C 19.128906 -13.332031 19.015625 -12.617188 19.015625 -12.328125 C 19.015625 -11.328125 19.375 -10.828125 20.09375 -10.828125 C 20.882812 -10.828125 21.910156 -11.457031 23.171875 -12.71875 C 23.546875 -13.09375 23.929688 -13.28125 24.328125 -13.28125 C 24.703125 -13.28125 24.992188 -13.113281 25.203125 -12.78125 C 25.421875 -12.457031 25.53125 -12.023438 25.53125 -11.484375 C 25.53125 -10.421875 25.242188 -9.59375 24.671875 -9 C 23.867188 -8.164062 22.929688 -7.457031 21.859375 -6.875 C 20.785156 -6.289062 19.648438 -6 18.453125 -6 C 16.941406 -6 15.789062 -6.382812 15 -7.15625 C 14.21875 -7.925781 13.828125 -8.96875 13.828125 -10.28125 C 13.828125 -10.707031 13.875 -11.132812 13.96875 -11.5625 C 14.019531 -12.132812 14.046875 -12.519531 14.046875 -12.71875 C 14.046875 -13.175781 13.890625 -13.40625 13.578125 -13.40625 C 13.148438 -13.40625 12.582031 -12.925781 11.875 -11.96875 C 11.175781 -11.007812 10.484375 -9.742188 9.796875 -8.171875 C 9.117188 -6.609375 8.566406 -4.957031 8.140625 -3.21875 C 7.828125 -1.875 7.460938 -0.960938 7.046875 -0.484375 C 6.628906 -0.015625 5.976562 0.21875 5.09375 0.21875 Z M 5.09375 0.21875 "/></g></g></g></svg>